<?xml version="1.0" standalone="no"?>
<!DOCTYPE svg PUBLIC "-//W3C//DTD SVG 20010904//EN"
 "http://www.w3.org/TR/2001/REC-SVG-20010904/DTD/svg10.dtd">
<svg version="1.0" xmlns="http://www.w3.org/2000/svg"
 width="1024.000000pt" height="1024.000000pt" viewBox="0 0 1024.000000 1024.000000"
 preserveAspectRatio="xMidYMid meet">

<g transform="translate(0.000000,1024.000000) scale(0.100000,-0.100000)"
fill="#000000" stroke="none">
<path d="M1914 6212 c-52 -18 -111 -59 -494 -340 -231 -169 -265 -205 -295
-305 -23 -77 -22 -750 1 -828 35 -117 95 -200 186 -259 109 -71 117 -72 713
-68 l530 3 68 32 c91 43 178 127 220 212 l32 66 3 408 c3 449 2 463 -57 544
-39 55 -669 512 -736 535 -63 22 -107 22 -171 0z m410 -428 c180 -131 306
-229 317 -248 18 -29 19 -55 19 -389 0 -332 -1 -360 -19 -395 -25 -48 -66 -87
-113 -106 -56 -24 -1000 -24 -1056 0 -47 19 -88 58 -113 106 -18 35 -19 63
-19 402 l0 366 28 30 c15 17 155 125 312 240 221 162 292 209 316 210 24 0 91
-44 328 -216z"/>
<path d="M1827 5372 c-14 -16 -17 -43 -17 -173 0 -112 4 -160 13 -173 12 -16
31 -18 177 -17 144 0 166 2 177 18 9 12 13 63 13 173 0 139 -2 159 -18 173
-16 14 -43 17 -174 17 -137 0 -157 -2 -171 -18z"/>
<path d="M5430 5465 l0 -665 116 0 115 0 -3 220 c-2 121 -1 220 2 220 3 0 88
-99 189 -220 l184 -220 155 0 156 0 -25 28 c-14 15 -90 99 -169 187 -79 88
-170 188 -203 222 l-60 61 183 204 c101 112 195 215 209 231 l25 27 -145 0
-144 -1 -175 -194 c-96 -107 -177 -195 -180 -195 -3 0 -4 171 -2 380 l2 380
-115 0 -115 0 0 -665z"/>
<path d="M8700 5870 l0 -110 -85 0 -85 0 0 -100 0 -100 84 0 84 0 4 -267 c5
-302 12 -339 74 -411 57 -67 102 -85 219 -90 58 -2 118 1 143 7 l42 12 0 98 0
98 -88 -5 c-82 -4 -90 -3 -115 19 -40 35 -46 78 -47 322 l0 217 125 0 125 0 0
100 0 100 -125 0 -125 0 0 110 0 110 -115 0 -115 0 0 -110z"/>
<path d="M4753 5765 c-52 -16 -123 -56 -168 -97 l-35 -30 0 61 0 61 -110 0
-110 0 0 -665 0 -665 115 0 115 0 0 241 0 241 41 -37 c125 -112 334 -127 480
-34 100 64 174 165 205 282 18 69 18 226 -1 306 -40 168 -171 305 -327 341
-59 13 -155 11 -205 -5z m141 -196 c46 -13 120 -79 146 -130 43 -83 46 -218 7
-311 -56 -133 -217 -190 -352 -123 -60 29 -93 65 -127 141 -31 70 -31 198 2
272 26 60 100 133 152 149 44 15 124 15 172 2z"/>
<path d="M6688 5761 c-152 -49 -282 -187 -324 -346 -20 -75 -18 -231 4 -303
36 -114 129 -225 234 -278 78 -40 142 -54 244 -54 146 0 239 35 337 129 58 55
124 162 112 181 -4 6 -57 10 -119 10 l-113 0 -26 -39 c-70 -106 -253 -123
-357 -33 -45 38 -90 117 -90 157 l0 25 364 0 365 0 6 43 c12 78 -20 218 -69
302 -31 52 -131 147 -184 174 -103 53 -274 67 -384 32z m254 -194 c50 -21 99
-67 119 -112 36 -79 50 -75 -226 -75 -182 0 -245 3 -245 12 0 56 101 168 168
187 45 12 140 6 184 -12z"/>
<path d="M7915 5767 c-61 -21 -105 -45 -157 -89 l-48 -39 0 60 0 61 -110 0
-110 0 0 -665 0 -665 110 0 110 0 1 208 c2 185 3 237 8 266 0 4 20 -8 42 -29
23 -21 67 -49 98 -64 49 -23 68 -26 161 -26 97 0 110 2 173 32 132 63 231 193
258 338 16 83 5 246 -19 317 -44 125 -126 216 -242 271 -54 26 -79 32 -150 34
-51 2 -101 -2 -125 -10z m139 -199 c61 -18 140 -101 160 -168 18 -61 21 -177
6 -232 -53 -189 -294 -254 -432 -115 -60 60 -83 119 -83 217 1 112 23 176 81
234 69 69 169 93 268 64z"/>
<path d="M3270 5433 c0 -412 12 -474 107 -565 58 -56 123 -81 224 -86 116 -6
180 13 248 74 l51 46 0 -51 0 -51 120 0 120 0 0 480 0 480 -115 0 -115 0 0
-302 c0 -178 -4 -318 -10 -340 -14 -50 -55 -97 -105 -119 -48 -22 -142 -25
-188 -5 -42 17 -83 66 -97 114 -6 22 -10 164 -10 345 l0 307 -115 0 -115 0 0
-327z"/>
</g>
</svg>
